# xmcd
# Track frame offsets:
# 182
# 13675
# 23310
# 35787
# 52095
# 65355
# 85792
# 97100
# 120180
# 137560
# 154945
# 165350
# 185725
# 206145
# 224920
# 237150
# 247732
# 261370
#
# Disc length: 3699 seconds
# Revision: 0
# Processed by: cddbd v1.4PL0 Copyright (c) Steve Scherf et al.
# Submitted via: VisiTrax 2.9.3.171 - For more info visit www.synapsa.com
#
DISCID=f90e7112
DTITLE=Keep It Clean - Nantional Gallery
DYEAR=1993
DGENRE=Blues
TTITLE0=Lost Lover Blues
TTITLE1=Trouble In Mind
TTITLE2=Keep It Clean
TTITLE3=Weepig Willow Blues
TTITLE4=When I Lay My Burden Down
TTITLE5=Winin' Boy Blues
TTITLE6=From Four Until Late
TTITLE7=Sundown
TTITLE8=Worried Life
TTITLE9=Come Back Baby
TTITLE10=Drunken Hearted Man
TTITLE11=Big Road Blues
TTITLE12=Special Rider Blues
TTITLE13=Sitting On Top Of The World
TTITLE14=Electric Chair Blues
TTITLE15=Police Dog Blues
TTITLE16=Ballard Of Fulton Allen
TTITLE17=Travellin' Light
EXTD=Rhiannon - RHYD 5007
EXTT0=
EXTT1=
EXTT2=
EXTT3=
EXTT4=
EXTT5=
EXTT6=
EXTT7=
EXTT8=
EXTT9=
EXTT10=
EXTT11=
EXTT12=
EXTT13=
EXTT14=
EXTT15=
EXTT16=
EXTT17=
PLAYORDER=
